{"title":"Paul 2011 CAM XViD SAFCuk009 {DragonTrG}","uid":6184111,"size":1271587240,"categoryP":"video","categoryS":"movies","magnet":"?xt=urn:btih:d988e23f2c2dbc88e97550c84f822d6492a0d4a9&amp;dn=Paul+2011+CAM+XViD+SAFCuk009+%7BDragonTrG%7D&amp;tr=udp%3A%2F%2Ftracker.openbittorrent.com%3A80&amp;tr=udp%3A%2F%2Fopen.demonii.com%3A1337&amp;tr=udp%3A%2F%2Ftracker.coppersurfer.tk%3A6969&amp;tr=udp%3A%2F%2Fexodus.desync.com%3A6969","seeders":1,"leechers":0,"uploader":"SAFCukO09","files":3,"time":1298058312,"description":"ormat : AVI\nFormat/Info : Audio Video Interleave\nFile size : 1.18 GiB\nDuration : 1h 35mn\nOverall bit rate : 1 777 Kbps\nWriting library : VirtualDub build 32839/release\n\nVideo\nID : 0\nFormat : MPEG-4 Visual\nFormat profile : Advanced Simple@L5\nFormat settings, BVOP : Yes\nFormat settings, QPel : No\nFormat settings, GMC : No warppoints\nFormat settings, Matrix : Custom\nCodec ID : XVID\nCodec ID/Hint : XviD\nDuration : 1h 35mn\nBit rate : 1 639 Kbps\nWidth : 720 pixels\nHeight : 288 pixels\nDisplay aspect ratio : 2.500\nFrame rate : 25.000 fps\nColor space : YUV\nChroma subsampling : 4:2:0\nBit depth : 8 bits\nScan type : Progressive\nBits/(Pixel*Frame) : 0.316\nStream size : 1.09 GiB (92%)\nWriting library : XviD 1.2.1 (UTC 2008-12-04)\n\nAudio\nID : 1\nFormat : MPEG Audio\nFormat version : Version 1\nFormat profile : Layer 3\nCodec ID : 55\nCodec ID/Hint : MP3\nDuration : 1h 35mn\nBit rate mode : Constant\nBit rate : 128 Kbps\nChannel(s) : 2 channels\nSampling rate : 44.1 KHz\nStream size : 87.3 MiB (7%)\nAlignment : Split accross interleaves\nInterleave, duration : 40 ms (1.00 video frame)\nInterleave, preload duration : 500 ms\n &lt;a href=&quot;\nhttp://www.imdb.com/title/tt1092026/&quot; rel=&quot;nofollow&quot; target=&quot;_NEW&quot;&gt;\nhttp://www.imdb.com/title/tt1092026/&lt;/a&gt;\n\n\n89524873606771859129.png\n\n\nStoryline\n\nSimon Pegg and Nick Frost (Hot Fuzz, Shaun of the Dead) reunite for the comedy adventure Paul as two sci-fi geeks whose pilgrimage takes them to America's UFO heartland. While there, they accidentally meet an alien who brings them on an insane road trip that alters their universe forever. For the past 60 years, an alien named Paul (voiced by Seth Rogen) has been hanging out at a top-secret military base. For reasons unknown, the space-traveling smart ass decides to escape the compound and hop on the first vehicle out of town-a rented RV containing Earthlings Graeme Willy (Pegg) and Clive Gollings (Frost). Chased by federal agents and the fanatical father of a young woman that they accidentally kidnap, Graeme and Clive hatch a fumbling escape plan to return Paul to his mother ship. And as two nerds struggle to help, one little green man might just take his fellow outcasts from misfits to intergalactic heroes...\n\nUsers: 7.8/10 (261 votes) 13 reviews | Critics: 14 reviews\n\n\nDirector:\nGreg Mottola\nWriters:\nNick Frost, Simon Pegg\nStars:\nSimon Pegg, Nick Frost and Seth Rogen","torrent":{"xt":"urn:btih:d988e23f2c2dbc88e97550c84f822d6492a0d4a9","amp;dn":"Paul+2011+CAM+XViD+SAFCuk009+%7BDragonTrG%7D","amp;tr":["udp%3A%2F%2Ftracker.openbittorrent.com%3A80","udp%3A%2F%2Fopen.demonii.com%3A1337","udp%3A%2F%2Ftracker.coppersurfer.tk%3A6969","udp%3A%2F%2Fexodus.desync.com%3A6969"],"infoHash":"d988e23f2c2dbc88e97550c84f822d6492a0d4a9","infoHashBuffer":{"type":"Buffer","data":[217,136,226,63,44,45,188,136,233,117,80,200,79,130,45,100,146,160,212,169]},"announce":[],"urlList":[]}}